<mxfile host="app.diagrams.net" modified="2024-04-28T10:37:29.339Z" agent="Mozilla/5.0 (Macintosh; Intel Mac OS X 10_15_7) AppleWebKit/537.36 (KHTML, like Gecko) Chrome/123.0.0.0 Safari/537.36" version="24.3.0" etag="0sdM9acx8J1N-W5hdo8c" type="github">
  <diagram name="第 1 页" id="h9S3AuGBRFJXXMkoEqXc">
    <mxGraphModel>
      <root>
        <mxCell id="0" />
        <mxCell id="1" parent="0" />
      </root>
    </mxGraphModel>
  </diagram>
</mxfile>
